<svg width="24" height="18" viewBox="0 0 24 18" fill="none" xmlns="http://www.w3.org/2000/svg">
<path fill-rule="evenodd" clip-rule="evenodd" d="M11.3821 0L22.253 1.16428L23.0194 2.11459L22.2643 9.16399L21.314 9.93037L12.63 9.00028L12.5877 9.39519L11.6521 10.1496L0.754515 8.98254L0 8.04691L0.203908 6.14325L3.29652 4.9119L0.601562 2.43147L0.757936 0.970865L1.69351 0.216361L10.3909 1.14785L10.4317 0.766385L11.3821 0ZM11.9176 1.63634L11.7848 2.87613L2.29924 1.86022L6.19642 5.44717L1.66417 7.25172L1.63777 7.49814L11.1034 8.51187L11.2362 7.27201L20.7785 8.29403L21.3831 2.6501L11.9176 1.63634Z" fill="white"/>
<path d="M21.1418 11.0517L20.6025 11.0133L19.9262 17.355L21.3505 17.5085L22.0271 11.163L22.1394 10.1521L21.1418 11.0517Z" fill="white"/>
</svg>
